<svg id="Layer_1" data-name="Layer 1" xmlns="http://www.w3.org/2000/svg" viewBox="0 0 179.86 179.86"><defs><style>.cls-1{fill:none;stroke:#84838c;stroke-width:2px;}.cls-1,.cls-7{stroke-miterlimit:10;}.cls-2{opacity:0.8;}.cls-3{fill:#2e2c29;}.cls-3,.cls-4,.cls-5,.cls-6{opacity:0.7;}.cls-4{fill:#f7e200;}.cls-5{fill:#46413e;}.cls-6{fill:#f9e975;}.cls-7{font-size:100px;fill:#edebeb;stroke:#d6d6d8;stroke-width:0.25px;font-family:ONEDAY, ONE DAY;}</style></defs><title>Untitled-3</title><rect class="cls-1" x="243.55" y="334.59" width="125.18" height="125.18" transform="translate(-407.39 25.55) rotate(-45)"/><rect class="cls-1" x="27.4" y="25.07" width="127.39" height="128.43"/><g class="cls-2"><path class="cls-3" d="M275.49,370c33.26,27.86,31,25.92,31.33,26.23-.1,0-37.67-16-38.4-16.48a6,6,0,1,1,7.07-9.75Z" transform="translate(-216.21 -307.25)"/><path class="cls-4" d="M282.38,361.92q12.21,17.13,24.44,34.26-15.31-13.94-30.61-27.9a4.76,4.76,0,0,1-1.94-4.64A4.5,4.5,0,0,1,282.38,361.92Z" transform="translate(-216.21 -307.25)"/><path class="cls-4" d="M301,350c1.65.38,1.58,2.11,1.64,2.65,4.38,45.7,4.15,43,4.14,43.58-2.76-14.44-5.57-29.34-8.33-43.77A2.09,2.09,0,0,1,301,350Z" transform="translate(-216.21 -307.25)"/><path class="cls-5" d="M316,350.1a3.55,3.55,0,0,1,2.43,4.43c-12.17,43.76-11.42,41-11.64,41.65-.06-.23-.21,2.33,4.72-43A3.56,3.56,0,0,1,316,350.1Z" transform="translate(-216.21 -307.25)"/><path class="cls-5" d="M300.33,359.43c2.17,12.27,4.32,24.49,6.49,36.75-23.45-34.33-22.6-32.46-22.7-35.48a8.14,8.14,0,0,1,16.21-1.27Z" transform="translate(-216.21 -307.25)"/><path class="cls-4" d="M266.08,380.41c13.55,5.25,27.2,10.51,40.74,15.77-.62-.1,2.6.58-42.86-8.69a3.71,3.71,0,1,1,2.12-7.08Z" transform="translate(-216.21 -307.25)"/><path class="cls-5" d="M303.82,351a1.35,1.35,0,0,1,1-1.52,1.33,1.33,0,0,1,1.58,1.15c0,.09.44,44.66.38,45.58C305.82,381.3,304.82,365.85,303.82,351Z" transform="translate(-216.21 -307.25)"/><path class="cls-3" d="M350.82,380.34c-1.21,3-3.9,3.51-5,3.87-13,4-26,8-39,12,3.53-2.35,34.18-22.53,34.75-22.91A6,6,0,0,1,350.82,380.34Z" transform="translate(-216.21 -307.25)"/><path class="cls-3" d="M307.59,350.63a1.6,1.6,0,0,1,1.77-1.28,1.57,1.57,0,0,1,1.34,1.71c-4,46.76-3.85,44.31-3.88,45.12C306.72,395.73,307.57,350.81,307.59,350.63Z" transform="translate(-216.21 -307.25)"/><path class="cls-6" d="M338.32,365.34a3.69,3.69,0,1,1,4.74,5.61c-38.24,26.72-35.75,24.92-36.24,25.23C307.15,395.79,338.22,365.43,338.32,365.34Z" transform="translate(-216.21 -307.25)"/><path class="cls-3" d="M320.41,351.53a1.16,1.16,0,0,1,1.75,1.37c-15.75,44.58-15.15,43-15.34,43.28.31-1.17-.09.5,13-43.46A1.9,1.9,0,0,1,320.41,351.53Z" transform="translate(-216.21 -307.25)"/><path class="cls-3" d="M337.84,361.34a1,1,0,0,1,1.44-.14,1,1,0,0,1,.06,1.54c-.09.1-32.11,33.06-32.52,33.44C307,395.87,305.89,397.34,337.84,361.34Z" transform="translate(-216.21 -307.25)"/><path class="cls-4" d="M330.05,354.87A10.21,10.21,0,0,1,335.36,368c-1.1,2.75,0,1.13-28.54,28.17,9.87-37.21,9.3-35,9.66-35.88A10.21,10.21,0,0,1,330.05,354.87Z" transform="translate(-216.21 -307.25)"/><path class="cls-5" d="M265.76,406.87c13.69-3.54,27.37-7.17,41.06-10.69-12.16,7.22-24.33,14.51-36.5,21.73a6,6,0,1,1-4.56-11Z" transform="translate(-216.21 -307.25)"/><path class="cls-6" d="M265.28,389c.9.16,41,7.09,41.54,7.23l-41.91,3.72a5.53,5.53,0,1,1,.37-10.95Z" transform="translate(-216.21 -307.25)"/><path class="cls-3" d="M306.82,396.18c-3.95.85-5.28,1.25-44.9,10.07a2.49,2.49,0,1,1-.83-4.9C309.29,396,306.28,396.19,306.82,396.18Z" transform="translate(-216.21 -307.25)"/><path class="cls-5" d="M351.69,382.54a2,2,0,0,1,1.68,3.48c-.54.4-46.31,10.12-46.55,10.16C307.1,396,305,396.78,351.69,382.54Z" transform="translate(-216.21 -307.25)"/><path class="cls-3" d="M352.66,387.78a2.84,2.84,0,0,1,1.68,0,1.66,1.66,0,0,1-.45,3.2c-48.85,5.52-46.81,5.32-47.07,5.25C312,395.2,351.23,388,352.66,387.78Z" transform="translate(-216.21 -307.25)"/><path class="cls-5" d="M306.82,396.18c2.81.05,38.33,1.13,41.15,1.21a8,8,0,0,1,3,15.27,8.64,8.64,0,0,1-7.73-.45C304.81,395.33,307.09,396.36,306.82,396.18Z" transform="translate(-216.21 -307.25)"/><path class="cls-6" d="M306.82,396.18h0c-40.91,28.19-39.45,27.6-40.47,27.28a1.63,1.63,0,0,1-.28-3C292.25,404.92,305.74,396.78,306.82,396.18Z" transform="translate(-216.21 -307.25)"/><path class="cls-4" d="M306.82,396.18c9,11.08,18,22.26,27,33.34a7.28,7.28,0,0,1-7.28,11.66c-4.42-1-5.32-5-5.77-6.15C316.13,422.1,311.44,409.1,306.82,396.18Z" transform="translate(-216.21 -307.25)"/><path class="cls-3" d="M306.82,396.18c39.79,27.72,37.62,26.21,38.22,27.07a5.28,5.28,0,0,1-8.28,6.56Z" transform="translate(-216.21 -307.25)"/><path class="cls-6" d="M306.82,396.18c-.5,1.8-1.14,3.83-1.67,5.62-12.42,40.31-11.47,38.62-13.61,40a5.2,5.2,0,0,1-7.58-6.43C284.14,434.93,306.41,396.79,306.82,396.18Z" transform="translate(-216.21 -307.25)"/><path class="cls-5" d="M306.82,396.18c15.48-1.26,31.1-2.43,46.58-3.69a2.43,2.43,0,1,1,.12,4.84C338,397,322.34,396.55,306.82,396.18Z" transform="translate(-216.21 -307.25)"/><path class="cls-6" d="M311,357.65c0,.68-4.08,38.18-4.18,38.53-5.73-40.81-5.63-38.85-4.68-40.59A4.71,4.71,0,0,1,311,357.65Z" transform="translate(-216.21 -307.25)"/><path class="cls-3" d="M306.82,396.18c46.46,20.9,43.6,19.38,44.29,20.7a3.21,3.21,0,0,1-3.67,4.63C346.73,421.34,306.92,396.24,306.82,396.18Z" transform="translate(-216.21 -307.25)"/><path class="cls-5" d="M306.82,396.18c-.58,1,.58-.83-25.36,41.44a1.37,1.37,0,0,1-2.55-.81C279,436.21,306.66,396.34,306.82,396.18Z" transform="translate(-216.21 -307.25)"/><path class="cls-4" d="M273.2,418.58c11.21-7.44,22.4-15,33.62-22.4-.06.1-22,34.13-22.49,34.68-5.26,6.51-15.84,2-14.84-6.27A8.39,8.39,0,0,1,273.2,418.58Z" transform="translate(-216.21 -307.25)"/><path class="cls-3" d="M306.82,396.18c14.55,48.28,14.4,45.71,13.26,47.73a3.91,3.91,0,0,1-7.3-1.38C312.68,441.69,306.89,396.92,306.82,396.18Z" transform="translate(-216.21 -307.25)"/><path class="cls-5" d="M296.25,437.75q5.29-20.78,10.57-41.57c1.21,14.21,2.46,28.44,3.67,42.65a7.23,7.23,0,1,1-14.24-1.08Z" transform="translate(-216.21 -307.25)"/><path class="cls-4" d="M346.06,385.86a4.73,4.73,0,0,1,1.38,9.21c-1.07.38-40.52,1.11-40.62,1.11C347.37,385.2,345.18,385.83,346.06,385.86Z" transform="translate(-216.21 -307.25)"/><path class="cls-6" d="M312.54,359.3a1.26,1.26,0,1,1,2.47.46c-8.4,37.6-8.06,36.11-8.19,36.42C307,395.15,306.72,397.14,312.54,359.3Z" transform="translate(-216.21 -307.25)"/><path class="cls-5" d="M306.82,396.18c-.69.19,2.06-.4-38.48,8.95a1.78,1.78,0,0,1-.83-3.47C268,401.57,302.59,396.75,306.82,396.18Z" transform="translate(-216.21 -307.25)"/><path class="cls-5" d="M276.42,382.94c.1.05,28.83,12.53,30.4,13.24q-16.43-1.83-32.86-3.66a5,5,0,1,1,2.46-9.58Z" transform="translate(-216.21 -307.25)"/><path class="cls-5" d="M286.34,367.88c.49.3-.88-1.63,20.48,28.3-25.59-26.49-24.09-24.79-24.25-25.76A2.48,2.48,0,0,1,286.34,367.88Z" transform="translate(-216.21 -307.25)"/><path class="cls-4" d="M336.82,371.85a2.1,2.1,0,0,1,1.25,3.25c-.34.5-31,20.93-31.25,21.08,2.76-2.41,5.9-4.91,8.68-7.3C336.52,371,335.43,371.51,336.82,371.85Z" transform="translate(-216.21 -307.25)"/><path class="cls-5" d="M283.9,374.23c1.18,1.13,22,21.06,22.92,21.95-.33-.2-26.46-17.77-26.91-18.45a2.67,2.67,0,0,1,4-3.5Z" transform="translate(-216.21 -307.25)"/><path class="cls-4" d="M310.52,363.2a1.77,1.77,0,1,1,3.49.63c0,.1-6.82,30.83-7.19,32.35C306.81,395.63,310.51,363.3,310.52,363.2Z" transform="translate(-216.21 -307.25)"/><path class="cls-4" d="M306.82,396.18c38,19.28,35.76,18,36.29,19.37a2.94,2.94,0,0,1-4.43,3.46Z" transform="translate(-216.21 -307.25)"/><path class="cls-4" d="M279.37,379.33c28.51,17.53,27.23,16.65,27.45,16.85-2.75-1.31-5.95-2.91-8.69-4.24-21.66-10.69-21.08-10-21.07-11.31A1.52,1.52,0,0,1,279.37,379.33Z" transform="translate(-216.21 -307.25)"/><path class="cls-4" d="M276.82,394.43c31.58,1.9,29.82,1.61,30,1.75-31.58,9.46-30.3,9.48-32.45,8.75C268.41,403,270,393.81,276.82,394.43Z" transform="translate(-216.21 -307.25)"/><path class="cls-6" d="M297.64,372.7c.56.72.05-.56,9.18,23.48-.67-.57-17.56-15-18.14-15.49a6,6,0,0,1-1.89-3.67C286,370.86,294,367.72,297.64,372.7Z" transform="translate(-216.21 -307.25)"/><path class="cls-3" d="M309,365.43a6,6,0,0,1,1.92,5.34c-1.36,8.49-2.74,16.92-4.1,25.41-2.54-8.13-5-16.2-7.58-24.33A6,6,0,0,1,309,365.43Z" transform="translate(-216.21 -307.25)"/><path class="cls-6" d="M306.82,396.18c.81,2.34,10.89,32.43,11.52,34.32a5.33,5.33,0,0,1,.45,2.11,4,4,0,0,1-7.94.27C306.67,394.47,306.74,396.47,306.82,396.18Z" transform="translate(-216.21 -307.25)"/><path class="cls-5" d="M306.82,396.18C334,413,332.55,412,333.69,413.52a7.51,7.51,0,1,1-12.64,8.06C316.33,413.14,311.54,404.63,306.82,396.18Z" transform="translate(-216.21 -307.25)"/><path class="cls-3" d="M289.24,424.71c5.86-9.47,11.7-19.07,17.58-28.53-3.36,10.66-6.74,21.44-10.11,32.1a4.17,4.17,0,1,1-7.47-3.57Z" transform="translate(-216.21 -307.25)"/><path class="cls-4" d="M306.82,396.18c-.28.28-29.94,17.63-30.11,17.7a1,1,0,0,1-1-1.81C276.14,411.8,306.1,396.54,306.82,396.18Z" transform="translate(-216.21 -307.25)"/><path class="cls-6" d="M306.82,396.18c-.64.32,1-.38-30.34,13.49a1.57,1.57,0,1,1-1.19-2.91C305,396.87,304.71,396.85,306.82,396.18Z" transform="translate(-216.21 -307.25)"/><path class="cls-3" d="M314.37,366.75c.28.49.59-1.15-6.76,26.65-.2.7-.54,2.09-.79,2.78.22-1.33,4.5-23.44,5.58-29.09A1,1,0,0,1,314.37,366.75Z" transform="translate(-216.21 -307.25)"/><path class="cls-3" d="M286.45,381c.09.08,20.09,14.93,20.37,15.16q-11.85-4.32-23.69-8.69a3.67,3.67,0,1,1,3.32-6.47Z" transform="translate(-216.21 -307.25)"/><path class="cls-3" d="M339.2,394.17a2.32,2.32,0,0,1,2,1,2.28,2.28,0,0,1-2,3.51c-33.91-2.6-31.94-2.5-32.39-2.54C309.2,396,337,394.31,339.2,394.17Z" transform="translate(-216.21 -307.25)"/><path class="cls-6" d="M306.82,396.18c.79.3-.2,0,30.73,13.18a1.89,1.89,0,0,1,1.12,1.28,1.84,1.84,0,0,1-2.7,2C305.76,395.61,307,396.39,306.82,396.18Z" transform="translate(-216.21 -307.25)"/><path class="cls-6" d="M333.2,377.38A9.66,9.66,0,0,1,330,396c-.09,0-22.21.2-23.13.17,5.19-5.47,10.47-10.88,15.66-16.34A9.68,9.68,0,0,1,333.2,377.38Z" transform="translate(-216.21 -307.25)"/><path class="cls-5" d="M306.82,396.18c-.23,1.79-.12,1.1-4.88,32.93a1.69,1.69,0,1,1-3.33-.59C307.27,394.62,306.74,396.38,306.82,396.18Z" transform="translate(-216.21 -307.25)"/><path class="cls-3" d="M280.07,391.25c.45-.05-.51-.18,26.75,4.93-.2.06,1.07.17-26.67-2.6A1.18,1.18,0,0,1,280.07,391.25Z" transform="translate(-216.21 -307.25)"/><path class="cls-4" d="M306.82,396.18c.45.85,6,12.49,14.47,30.4a1.26,1.26,0,0,1-2.06,1.4C318.92,427.63,307,396.6,306.82,396.18Z" transform="translate(-216.21 -307.25)"/><path class="cls-5" d="M313.31,370.36a.94.94,0,1,1,1.78.55c-8.12,25-8,24.43-8.27,25.27C307.14,394.71,307.14,395.12,313.31,370.36Z" transform="translate(-216.21 -307.25)"/><path class="cls-4" d="M306.82,396.18c8.63.47,17.37,1.08,26,1.57a5.29,5.29,0,0,1,2.07,10c-2.84,1.37-5.06-.26-6.08-.73C305.78,395.71,307.18,396.38,306.82,396.18Z" transform="translate(-216.21 -307.25)"/><path class="cls-6" d="M280.8,389.1a1,1,0,0,1,1.2-.58c25.68,8,24.52,7.51,24.82,7.66-1.28-.26-24.14-5.56-25.32-5.83A1,1,0,0,1,280.8,389.1Z" transform="translate(-216.21 -307.25)"/><path class="cls-3" d="M319.72,376.08a5.18,5.18,0,0,1-.61,5.64c-4.08,4.84-8.2,9.63-12.29,14.46,1.06-6.21,2.17-12.38,3.23-18.6A5.16,5.16,0,0,1,319.72,376.08Z" transform="translate(-216.21 -307.25)"/><path class="cls-4" d="M306.82,396.18c.27,3.28,1.59,21.84,2.35,32.43a2.18,2.18,0,1,1-4.35,0C306.92,395.14,306.72,396.49,306.82,396.18Z" transform="translate(-216.21 -307.25)"/><path class="cls-5" d="M306.82,396.18c-5.53,8.28-11.07,16.66-16.61,24.93a1.57,1.57,0,0,1-2.79-1.37C287.54,419.37,286.24,420.85,306.82,396.18Z" transform="translate(-216.21 -307.25)"/><path class="cls-3" d="M306.82,396.18c12.37,24.9,11.67,23.35,11.83,24.19a5.26,5.26,0,1,1-10.4,1.27C307.79,413.18,307.27,404.64,306.82,396.18Z" transform="translate(-216.21 -307.25)"/><path class="cls-6" d="M306.82,396.18c-.24,8.67-.52,17.37-.78,26a3.5,3.5,0,1,1-6.85-1.1C307.25,395,306.71,396.64,306.82,396.18Z" transform="translate(-216.21 -307.25)"/><path class="cls-6" d="M306.82,396.18c0,.1-9.49,23.42-9.94,24a2.68,2.68,0,0,1-4.67-1,2.72,2.72,0,0,1,.37-2.15C307.52,395.28,306.55,396.54,306.82,396.18Z" transform="translate(-216.21 -307.25)"/><path class="cls-3" d="M306.82,396.18c-5.33,6.2-10.69,12.45-16,18.64a6.56,6.56,0,1,1-8-10C283.44,404.45,306.72,396.21,306.82,396.18Z" transform="translate(-216.21 -307.25)"/><path class="cls-4" d="M290.75,383.75c.75-.09,1.09.37,16.07,12.43.33.28-.29-.31,0,0-.32-.14.59.39-16.61-9.95A1.34,1.34,0,0,1,290.75,383.75Z" transform="translate(-216.21 -307.25)"/><path class="cls-6" d="M292.85,388.83c4.67,2.47,9.29,4.89,14,7.35-16,6.05-15.88,6.43-18.36,6a7.11,7.11,0,1,1,4.39-13.35Z" transform="translate(-216.21 -307.25)"/><path class="cls-4" d="M308.28,381.22a10.28,10.28,0,0,1-.11,3.13c-.45,3.94-.88,7.89-1.35,11.83-2.16-4-4.24-8-6.39-12a4.3,4.3,0,0,1-.44-2.9A4.25,4.25,0,0,1,308.28,381.22Z" transform="translate(-216.21 -307.25)"/><path class="cls-5" d="M298.23,383.85c.3.26-.25-.56,8.59,12.33-3.87-2.79-7.71-5.61-11.57-8.41a2.47,2.47,0,1,1,3-3.92Z" transform="translate(-216.21 -307.25)"/><path class="cls-3" d="M306.82,396.18c5.15,1.52,10.34,3.1,15.49,4.62a4.9,4.9,0,1,1-5.27,7.72Z" transform="translate(-216.21 -307.25)"/><path class="cls-5" d="M306.82,396.18c6.2.33,12.64.79,18.84,1.14a1.24,1.24,0,0,1,.41,2.42,2.13,2.13,0,0,1-1.09-.05C307.67,396.38,308,396.44,306.82,396.18Z" transform="translate(-216.21 -307.25)"/><path class="cls-3" d="M306.82,396.18c4.54-.37,9.14-.67,13.68-1a2,2,0,0,1,1.8.87,2,2,0,0,1-1.31,3.11C320.49,399.22,321.21,399.27,306.82,396.18Z" transform="translate(-216.21 -307.25)"/><path class="cls-6" d="M306.82,396.18c.83.15,8.75,2,9.46,2.15a1.25,1.25,0,1,1-.91,2.32C312.55,399.2,309.64,397.63,306.82,396.18Z" transform="translate(-216.21 -307.25)"/><path class="cls-6" d="M306.82,396.18c12.13,17.24,11.64,16.18,11.57,17.18a2,2,0,0,1-3.74.61C312.06,408.06,309.4,402.09,306.82,396.18Z" transform="translate(-216.21 -307.25)"/><path class="cls-5" d="M317.34,387.61a6,6,0,0,1-6,9.69c-1.5-.35-3-.77-4.54-1.12a46.55,46.55,0,0,1-.11-5.83A6,6,0,0,1,317.34,387.61Z" transform="translate(-216.21 -307.25)"/><path class="cls-4" d="M301.79,397.39c1.69-.39,3.34-.83,5-1.21l3.82,3.3a9.8,9.8,0,0,1,2.8,10.7c-3.11,8.74-15.6,8.52-18.49-.18A9.8,9.8,0,0,1,301.79,397.39Z" transform="translate(-216.21 -307.25)"/><path class="cls-3" d="M301.43,388.49a3.46,3.46,0,0,1,3.26,2.16c.72,1.86,1.42,3.66,2.13,5.53-2-.3-3.9-.56-5.86-.86a3.44,3.44,0,0,1,.47-6.83Z" transform="translate(-216.21 -307.25)"/></g><text class="cls-7" transform="translate(68.13 127.69)">S</text></svg>
